<svg xmlns="http://www.w3.org/2000/svg" width="56" height="60" viewBox="0 0 56 60">
    <g fill="none" fill-rule="nonzero">
        <path fill="#003576" d="M46.426 51.098h-7.101c-.95 0-1.826.403-2.475 1.033a3.525 3.525 0 0 0 0 4.967c.65.655 1.525 1.058 2.475 1.058h7.1c.925 0 1.8-.403 2.426-1.008l.024-.05a3.417 3.417 0 0 0 1.024-2.472c0-.982-.375-1.865-1.024-2.495a3.467 3.467 0 0 0-2.451-1.033h.002zM31.45 0c1.45 0 2.75.606 3.725 1.564 3.25 3.277 1.1 15.754-.05 18.805-.025.1-.05.226-.05.328 0 .378.2.781.523 1.134.376.379.876.705 1.4.907.276.102.551.177.8.177H50.75c1.45 0 2.75.605 3.7 1.588.95.982 1.551 2.343 1.551 3.781 0 1.463-.6 2.749-1.55 3.68-.25.252-.525.479-.826.657.299.202.574.453.825.705.95.982 1.551 2.319 1.551 3.781 0 1.463-.6 2.749-1.55 3.68-.525.53-1.2.932-1.925 1.21.074.05.15.126.225.176a5.304 5.304 0 0 1 1.524 3.731c0 1.463-.574 2.749-1.524 3.68-.7.681-1.575 1.161-2.55 1.386.9.958 1.45 2.244 1.45 3.656a5.258 5.258 0 0 1-1.524 3.731c-.024.024-.05.024-.05.05a5.23 5.23 0 0 1-3.65 1.514H41.5c-1.275.024-2.424.024-3.449.05-9.476.102-10.4.126-22.55-3.378-.125.302-.3.555-.525.782a2.642 2.642 0 0 1-1.85.781h-10.5a2.592 2.592 0 0 1-1.85-.781c-.025-.025-.025-.051-.05-.051A2.675 2.675 0 0 1 0 55.509V25.562c0-.731.3-1.412.775-1.89a2.58 2.58 0 0 1 1.85-.756h10.5c.7 0 1.375.278 1.85.756 0 .024.025.05.05.075.276.278.475.63.602 1.009 2.424-.177 4.55-1.916 6.225-4.31 2.35-3.353 3.8-7.94 4.174-11.621.075-.63.125-1.26.15-1.841.027-.581.051-1.16.051-1.69 0-1.462.575-2.772 1.525-3.73C28.702.606 30.028 0 31.452 0h-.002zm4.502 24.2a5.174 5.174 0 0 1-1.6-1.184c-.624-.656-1.024-1.436-1.024-2.32 0-.301.05-.63.175-.957.876-2.344 2.95-14.394.426-16.94a3.481 3.481 0 0 0-2.475-1.033c-.95 0-1.826.403-2.45 1.033-.652.63-1.025 1.513-1.025 2.496 0 .504-.025 1.11-.05 1.79-.05.58-.101 1.236-.151 1.916-.4 3.932-1.975 8.874-4.5 12.477-1.95 2.798-4.5 4.815-7.55 5.042v28.309c10.977 3.151 12.75 3.453 19.776 3.402-.876-.958-1.425-2.218-1.425-3.605 0-1.462.6-2.773 1.551-3.73.024-.052.074-.076.1-.127a4.968 4.968 0 0 1-1.85-1.184 5.116 5.116 0 0 1-1.55-3.68c0-1.437.6-2.774 1.55-3.732.151-.152.326-.302.475-.43-.5-.25-.95-.578-1.35-.957a5.116 5.116 0 0 1-1.551-3.68c0-1.463.6-2.798 1.55-3.782.676-.705 1.551-1.236 2.502-1.463a5.173 5.173 0 0 1-1.425-3.579c0-1.436.6-2.797 1.551-3.781.1-.102.225-.203.325-.302l-.005.002zm.75 16.335H50.75c.974 0 1.85-.38 2.5-1.01.601-.605 1.001-1.462 1.001-2.42 0-.982-.4-1.89-1.05-2.57a3.385 3.385 0 0 0-2.451-1.06H36.7c-.95 0-1.8.404-2.45 1.06a3.72 3.72 0 0 0-1.051 2.57c0 .958.4 1.815 1.024 2.42a3.46 3.46 0 0 0 2.475 1.01h.002zm2.625-8.824h11.426c.974 0 1.85-.378 2.5-1.008.601-.606 1.001-1.463 1.001-2.42 0-.959-.4-1.89-1.05-2.547a3.385 3.385 0 0 0-2.451-1.059H39.327c-.95 0-1.826.403-2.451 1.06a3.662 3.662 0 0 0-1.05 2.545c0 .958.4 1.815 1 2.42a3.565 3.565 0 0 0 2.5 1.01zm-1.75 17.622h11.45c.975 0 1.874-.378 2.501-1.008.625-.606 1-1.463 1-2.42 0-.959-.4-1.842-1.024-2.472-.625-.656-1.5-1.033-2.475-1.033H37.58c-.95 0-1.826.379-2.475 1.033a3.525 3.525 0 0 0-1.025 2.471c0 .958.4 1.815 1 2.42a3.565 3.565 0 0 0 2.502 1.01h-.004zm-23.602 6.15V25.56a.97.97 0 0 0-.2-.606l-.05-.024a.868.868 0 0 0-.601-.251h-10.5a.877.877 0 0 0-.601.251.825.825 0 0 0-.275.63v29.947c0 .227.1.43.225.58l.05.024c.15.176.376.277.6.277h10.5c.226 0 .45-.1.601-.277.175-.152.25-.379.25-.606v-.024l.001.002z"/>
        <path fill="#009EE0" d="M6.905 51.095c.167.143.38.237.595.237a.944.944 0 0 0 .595-.237.934.934 0 0 0 .237-.595.944.944 0 0 0-.237-.595.826.826 0 0 0-.595-.237.826.826 0 0 0-.595.237.826.826 0 0 0-.237.595c0 .214.07.428.237.595zM7.5 53a2.408 2.408 0 0 1-1.762-.738A2.415 2.415 0 0 1 5 50.5c0-.643.237-1.285.738-1.762A2.415 2.415 0 0 1 7.5 48c.643 0 1.262.237 1.762.738.499.477.738 1.12.738 1.762 0 .643-.237 1.285-.738 1.762-.477.499-1.12.738-1.762.738z"/>
    </g>
</svg>
