<svg xmlns="http://www.w3.org/2000/svg" width="21" height="20" viewBox="0 0 21 20">
    <path fill="#3A4A8C" fill-rule="evenodd" d="M19.863.64c.456.326.733.766.83 1.319.098.553-.048 1.025-.44 1.416L9.747 19.215a4.37 4.37 0 0 1-.185.176l-.088.078-.059.068-.059.068h-.137c-.064.066-.13.124-.195.176a.313.313 0 0 1-.195.078H8.71c-.13.065-.24.105-.331.118-.091.013-.202.02-.332.02a.674.674 0 0 1-.254-.07.674.674 0 0 0-.254-.068h-.137a.994.994 0 0 1-.195-.02.393.393 0 0 1-.195-.116h-.137l-.059-.059-.058-.059a.853.853 0 0 1-.186-.02c-.058-.012-.088-.051-.088-.116l-5.957-7.54a1.964 1.964 0 0 1-.507-1.533C.072 9.817.326 9.34.78 8.961a2.115 2.115 0 0 1 1.524-.39c.56.064 1.002.318 1.328.761l4.297 5.332 9.082-13.496a2.065 2.065 0 0 1 1.328-.85 1.887 1.887 0 0 1 1.523.323z"/>
</svg>
