<svg xmlns="http://www.w3.org/2000/svg" width="11" height="10" viewBox="0 0 11 10">
    <path fill="#FFF" fill-opacity=".2" fill-rule="evenodd" d="M7.928 9.03c.285 0 .516.217.516.485S8.213 10 7.928 10H.515C.231 10 0 9.783 0 9.515V.485C0 .217.23 0 .515 0h7.413c.285 0 .516.217.516.485S8.213.97 7.928.97H1.03v8.06h6.897zm2.969-4.198a.188.188 0 0 1 0 .336L9.042 6.176c-.138.074-.31-.02-.31-.17v-.521h-4.52c-.285 0-.516-.217-.516-.485s.231-.485.516-.485h4.52v-.522c0-.15.172-.243.31-.168l1.855 1.007z"/>
</svg>
