<svg xmlns="http://www.w3.org/2000/svg" width="60" height="72" viewBox="0 0 60 72">
    <g fill="none" fill-rule="nonzero">
        <path fill="#003576" d="M3.245 48.524l20.51 20.27a3.804 3.804 0 0 0 2.663 1.088c.98 0 1.96-.363 2.664-1.089l27.673-27.317c.367-.363.643-.787.827-1.21l.03-.03c.153-.424.245-.908.245-1.392V20.148c0-1.482-.612-2.783-1.561-3.751h-.03c-.858-.878-2.021-1.422-3.337-1.543.183.726.367 1.452.459 2.208.52.121 1.01.393 1.439.787.612.605.949 1.422.949 2.269 0 .786-.276 1.573-.888 2.178 0 .03-.03.06-.061.06-.613.636-1.44.938-2.266.938a3.229 3.229 0 0 1-2.204-.877c-.03 0-.03-.03-.061-.06a3.047 3.047 0 0 1-.95-2.24c0-.786.307-1.572.889-2.178 0-.03.03-.03.06-.06.276-.303.613-.514.98-.666a19.012 19.012 0 0 0-.581-2.36H33.55c-.52 0-1.01.061-1.439.243-.428.181-.826.454-1.224.847L3.245 43.26c-.704.665-1.102 1.663-1.102 2.631 0 .999.398 1.937 1.102 2.632zM14.878 28.77a21.61 21.61 0 0 1-1.378-3.873 20.644 20.644 0 0 1-.582-4.78c0-5.566 2.296-10.588 5.97-14.218C22.56 2.24 27.673 0 33.276 0c5.204 0 9.98 1.936 13.56 5.143 2.358 2.057 4.195 4.659 5.388 7.593h.276c2.051 0 3.949.817 5.296 2.148C59.143 16.245 60 18.091 60 20.148v18.696c0 .756-.153 1.482-.429 2.178l-.03.06a5.162 5.162 0 0 1-1.286 1.876L30.612 70.306A6.021 6.021 0 0 1 26.418 72c-1.5 0-3-.575-4.163-1.694l-20.51-20.3A5.686 5.686 0 0 1 0 45.893c0-1.482.551-2.934 1.684-4.084l.06-.06L14.879 28.77zm35.02-16.034a17.871 17.871 0 0 0-4.47-6.02c-3.214-2.874-7.469-4.598-12.152-4.598-5.02 0-9.582 2.027-12.888 5.264-3.276 3.267-5.327 7.774-5.327 12.736 0 1.482.184 2.904.52 4.265.246.968.552 1.876.919 2.783L29.388 14.43c.581-.575 1.194-.998 1.898-1.27h.03c.704-.303 1.44-.424 2.235-.424h16.347zm2.755 6.323c-.03 0-.061 0-.092.03h-.214c-.184.03-.398.121-.551.272l-.03.06a1.003 1.003 0 0 0-.276.697c0 .272.122.544.306.756l.061.03c.184.182.46.272.704.272.276 0 .551-.09.766-.302l.03-.03c.184-.212.276-.484.276-.726 0-.273-.092-.545-.306-.757a1.145 1.145 0 0 0-.674-.302z"/>
        <path fill="#009EE0" d="M35.236 51.846c.827 0 1.654-.308 2.266-.954.613-.615.95-1.415.95-2.277a3.25 3.25 0 0 0-.95-2.277 3.146 3.146 0 0 0-2.266-.953c-.827 0-1.654.307-2.297.953a3.22 3.22 0 0 0-.92 2.277c0 .831.307 1.662.92 2.277.612.616 1.44.954 2.297.954zm-4.288-17.23c.827 0 1.654-.308 2.266-.954.613-.616.95-1.416.95-2.277a3.25 3.25 0 0 0-.95-2.277 3.146 3.146 0 0 0-2.266-.954c-.827 0-1.654.308-2.297.954a3.22 3.22 0 0 0-.92 2.277c0 .83.307 1.661.92 2.277.612.615 1.44.953 2.297.953zm-3.798.584a5.445 5.445 0 0 1-1.562-3.815c0-1.385.52-2.77 1.562-3.816A5.343 5.343 0 0 1 30.948 26c1.378 0 2.726.523 3.767 1.57a5.297 5.297 0 0 1 1.593 3.815c0 2.953-2.42 5.384-5.36 5.384A5.314 5.314 0 0 1 27.15 35.2zm-7.872 8.492a1.06 1.06 0 0 1-1.256-.861c-.122-.554.276-1.139.858-1.231l27.873-5.323a1.03 1.03 0 0 1 1.225.861 1.035 1.035 0 0 1-.827 1.231l-27.873 5.323zm12.16 8.739a5.445 5.445 0 0 1-1.562-3.816c0-1.384.52-2.769 1.562-3.815a5.343 5.343 0 0 1 3.798-1.57c1.378 0 2.726.524 3.767 1.57a5.297 5.297 0 0 1 1.593 3.815c0 2.954-2.42 5.385-5.36 5.385a5.314 5.314 0 0 1-3.798-1.57z"/>
    </g>
</svg>
