<svg xmlns="http://www.w3.org/2000/svg" width="60" height="71" viewBox="0 0 60 71">
    <g fill="none" fill-rule="nonzero">
        <path fill="#003576" d="M7.426 68.863h13.779V35.968H4.235v29.704c0 .865.358 1.67.954 2.267l.03.03a3.085 3.085 0 0 0 2.207.894zm30.778 0h13.779c.865 0 1.67-.358 2.237-.924.596-.597.954-1.372.954-2.267V35.968h-16.97v32.895zm0-35.013h18.014a1.068 1.068 0 0 0 1.074-1.044v-6.382c0-.865-.358-1.67-.955-2.237a3.086 3.086 0 0 0-2.237-.954H38.204V33.85zm-17-10.617H5.31c-.865 0-1.67.358-2.237.954a3.086 3.086 0 0 0-.955 2.237v6.382c0 .269.12.537.329.746l.03.03c.178.179.447.268.715.268h18.014V23.233zm14.853 0H23.352v45.63h12.705v-45.63zm23.352 3.19v6.383c0 .865-.358 1.67-.924 2.237-.358.328-.746.597-1.193.746v29.883a5.321 5.321 0 0 1-1.551 3.758c-.984.954-2.297 1.55-3.758 1.55H7.426a5.237 5.237 0 0 1-3.668-1.49c-.03-.03-.06-.03-.09-.06a5.321 5.321 0 0 1-1.55-3.758V35.79a3.003 3.003 0 0 1-1.104-.686c-.03-.03-.06-.03-.09-.06A3.181 3.181 0 0 1 0 32.806v-6.382c0-1.461.596-2.774 1.55-3.758a5.321 5.321 0 0 1 3.759-1.55H54.1c1.46 0 2.803.596 3.757 1.55.955.984 1.551 2.297 1.551 3.758z"/>
        <path fill="#009EE0" d="M13.063 14.137c-2.744-2.714-3.072-5.906-1.969-8.59.776-1.879 2.267-3.49 4.146-4.444C17.119.15 19.356-.179 21.592.537c3.072.984 6.114 3.847 8.113 9.573 1.998-5.815 5.01-8.708 8.052-9.692 2.267-.746 4.503-.448 6.382.536 1.85.955 3.37 2.595 4.146 4.474 1.133 2.744.805 5.995-1.939 8.709-1.76 1.73-4.086 2.922-6.8 3.698-2.922.865-6.322 1.222-9.841 1.222-3.52 0-6.92-.357-9.842-1.222-2.714-.776-5.04-1.969-6.8-3.698zm-.03-7.785c-.775 1.939-.507 4.265 1.521 6.293 1.461 1.462 3.52 2.476 5.875 3.162 2.744.805 5.965 1.133 9.276 1.133 3.31 0 6.531-.328 9.275-1.133 2.356-.686 4.414-1.7 5.875-3.162 2.058-2.028 2.297-4.414 1.491-6.412-.596-1.431-1.76-2.654-3.19-3.4-1.403-.716-3.073-.954-4.743-.417-2.982.984-5.994 4.384-7.665 11.81-.09.388-.387.716-.805.805a1.102 1.102 0 0 1-1.282-.805c-1.64-7.337-4.683-10.707-7.695-11.661-1.7-.537-3.37-.298-4.772.417a6.683 6.683 0 0 0-3.161 3.37z"/>
    </g>
</svg>
