<svg xmlns="http://www.w3.org/2000/svg" width="90" height="36" viewBox="0 0 90 36">
    <g fill="#FFF" fill-rule="nonzero" opacity=".3">
        <path d="M31.117 11h4.188l1.657-7.333h2.071L37.423 11h4.188l.828-3.667h2.854L44.418 11h4.235L51 0h-4.234l-.783 4.125H43.13L43.958 0H29.69L29 3.667h3.774zM59.946 11l.513-2.292h-5.008l.3-1.833h4.708l.514-2.292h-4.708l.3-1.833h4.921L62 0h-8.817L51 11zM50.545 12.923l-6.09 10.939-1.546-10.939H30.773l-7.091 12.739-.182-5.816L23.273 12h-8.455L7.864 27.37 8.273 12H0l.818 24h9.546l6.909-15.462L17.682 36h.182-.046 9l2.546-5.077h7.5L37.273 36H46.59l2.545-5.077h7.5l.41 5.077H66l-3.318-23.077H50.545zm-18.59 12.462l3.954-7.754.636 7.754h-4.59zm19.772 0l3.955-7.754.636 7.754h-4.59zM80.88 13l-5.627 9.798L73.62 13H64l5.173 16.008L67.675 36h8.803l1.543-6.992L90 13z"/>
    </g>
</svg>
